<svg id="c1f6be22-5e74-475e-b516-5bb0395932cc" data-name="Layer 1" xmlns="http://www.w3.org/2000/svg" viewBox="0 0 270 35"><defs><style>.c0fa0d64-f7d1-4253-8099-3c3944f75b6b {fill:#001a4b;}</style></defs><title>Nomensa logo</title><path class="c0fa0d64-f7d1-4253-8099-3c3944f75b6b" d="M356.76,485.21" transform="translate(-161.09 -469.88)"/><path class="c0fa0d64-f7d1-4253-8099-3c3944f75b6b" d="M365.43,485.21" transform="translate(-161.09 -469.88)"/><path class="c0fa0d64-f7d1-4253-8099-3c3944f75b6b" d="M365.43,485.21" transform="translate(-161.09 -469.88)"/><path class="c0fa0d64-f7d1-4253-8099-3c3944f75b6b" d="M235.92,485.21" transform="translate(-161.09 -469.88)"/><path class="c0fa0d64-f7d1-4253-8099-3c3944f75b6b" d="M235.92,485.21" transform="translate(-161.09 -469.88)"/><path class="c0fa0d64-f7d1-4253-8099-3c3944f75b6b" d="M430.19,504.38V487.13a17.25,17.25,0,1,0-7.67,14.34v2.91Zm-17.25-7.67a9.58,9.58,0,1,1,9.58-9.58A9.58,9.58,0,0,1,412.94,496.71Z" transform="translate(-161.09 -469.88)"/><path class="c0fa0d64-f7d1-4253-8099-3c3944f75b6b" d="M325.52,487.13a17.26,17.26,0,1,0-2,8.11L317,491.66a9.87,9.87,0,0,1-8.77,5.34,10,10,0,0,1-9.65-8h26.8A17.42,17.42,0,0,0,325.52,487.13Zm-26-4.37a9.66,9.66,0,0,1,17.55-.11Z" transform="translate(-161.09 -469.88)"/><path class="c0fa0d64-f7d1-4253-8099-3c3944f75b6b" d="M191.75,485.21a15.33,15.33,0,0,0-30.67,0v19.17h7.67V485.21a7.67,7.67,0,1,1,15.33,0v19.17h7.67Z" transform="translate(-161.09 -469.88)"/><path class="c0fa0d64-f7d1-4253-8099-3c3944f75b6b" d="M257.22,504.38h7.67V485.21c0-4.23,2.58-7.67,6.82-7.67s6.82,3.43,6.82,7.67v19.17h7.67V485.21c0-8.47-6-15.33-14.48-15.33-4.58,0-7.84,2-10.65,5.2-2.81-3.19-6.07-5.2-10.65-5.2-8.47,0-14.48,6.87-14.48,15.33v19.17h7.67V485.21c0-4.23,2.58-7.67,6.82-7.67s6.82,3.43,6.82,7.67Z" transform="translate(-161.09 -469.88)"/><path class="c0fa0d64-f7d1-4253-8099-3c3944f75b6b" d="M353.36,504.38H361V485.21a15.33,15.33,0,0,0-30.67,0v19.17H338V485.21a7.67,7.67,0,0,1,15.33,0Z" transform="translate(-161.09 -469.88)"/><path class="c0fa0d64-f7d1-4253-8099-3c3944f75b6b" d="M230.29,484" transform="translate(-161.09 -469.88)"/><path class="c0fa0d64-f7d1-4253-8099-3c3944f75b6b" d="M230.29,484" transform="translate(-161.09 -469.88)"/><path class="c0fa0d64-f7d1-4253-8099-3c3944f75b6b" d="M213.84,469.88a17.25,17.25,0,1,0,17.25,17.25A17.25,17.25,0,0,0,213.84,469.88Zm10.68,27.93H203.16V476.45h21.36Z" transform="translate(-161.09 -469.88)"/><path class="c0fa0d64-f7d1-4253-8099-3c3944f75b6b" d="M220.61,480.36H207.07V493.9h13.54ZM216.7,490H211v-5.71h5.72Z" transform="translate(-161.09 -469.88)"/><path class="c0fa0d64-f7d1-4253-8099-3c3944f75b6b" d="M369.59,493.81a13.73,13.73,0,0,0,8.95,3.6c2.32,0,4.31-1,4.31-3,0-4.89-16-4.25-16-14.8,0-6.11,5.47-9.65,12.55-9.65,7.4,0,11,3.73,11,3.73l-3,6a12.46,12.46,0,0,0-8-2.83c-2.12,0-4.18.9-4.18,3,0,4.63,16,4.05,16,14.61,0,5.47-4.76,9.85-12.55,9.85a18.36,18.36,0,0,1-12.74-4.83Z" transform="translate(-161.09 -469.88)"/></svg>